<svg width="3550" height="1024" viewBox="0 0 3550 1024" fill="none" xmlns="http://www.w3.org/2000/svg">
<path d="M511.759 0.0820312L738.832 96.0439L739.222 96.209L739.124 96.6201L721.271 171.939L721.18 172.324H676.65V305.225H730.553L730.149 305.964L676.684 403.984L835.084 1023.08L835.243 1023.71H600.346L600.332 1023.22L584.757 482.008L243.629 1022.92L243.481 1023.15H189L189.161 1022.53L347.561 407.889L292.421 305.962L292.021 305.225H350.384V172.324H304.739L304.648 171.939L286.795 96.6201L286.697 96.2109L287.085 96.0449L511.368 0.0830078L511.563 0L511.759 0.0820312ZM448.018 173.556V301.203H576.781V173.556H448.018Z" fill="white"/>
<path d="M676.474 404.239L585.533 480.674L601.155 1023.53H834.923L676.474 404.239Z" fill="white"/>
<path d="M1370.88 749.24C1334.61 749.24 1303.04 742.627 1276.16 729.4C1249.71 716.173 1228.8 697.827 1213.44 674.36C1198.08 650.893 1189.12 623.587 1186.56 592.44L1257.6 587.96C1260.59 609.293 1266.77 627.427 1276.16 642.36C1285.55 656.867 1298.13 667.96 1313.92 675.64C1330.13 682.893 1349.55 686.52 1372.16 686.52C1391.79 686.52 1408.43 684.173 1422.08 679.48C1436.16 674.36 1446.83 666.893 1454.08 657.08C1461.33 647.267 1464.96 635.32 1464.96 621.24C1464.96 608.44 1461.76 597.133 1455.36 587.32C1449.39 577.08 1437.65 567.907 1420.16 559.8C1403.09 551.267 1377.92 542.947 1344.64 534.84C1308.37 525.88 1279.36 516.067 1257.6 505.4C1235.84 494.733 1220.05 481.507 1210.24 465.72C1200.85 449.507 1196.16 429.667 1196.16 406.2C1196.16 380.173 1202.35 357.347 1214.72 337.72C1227.52 317.667 1245.65 302.093 1269.12 291C1292.59 279.907 1320.75 274.36 1353.6 274.36C1388.16 274.36 1417.6 280.76 1441.92 293.56C1466.67 306.36 1486.08 323.853 1500.16 346.04C1514.67 368.227 1523.63 393.613 1527.04 422.2L1456 426.04C1453.87 408.547 1448.53 393.187 1440 379.96C1431.47 366.307 1419.95 355.853 1405.44 348.6C1390.93 340.92 1373.23 337.08 1352.32 337.08C1325.87 337.08 1304.96 343.267 1289.6 355.64C1274.67 367.587 1267.2 383.587 1267.2 403.64C1267.2 416.44 1270.19 427.32 1276.16 436.28C1282.56 444.813 1293.65 452.28 1309.44 458.68C1325.65 465.08 1348.48 471.907 1377.92 479.16C1417.17 488.12 1448.32 499.213 1471.36 512.44C1494.83 525.24 1511.47 540.387 1521.28 557.88C1531.09 575.373 1536 595.213 1536 617.4C1536 644.28 1528.96 667.747 1514.88 687.8C1501.23 707.427 1482.03 722.573 1457.28 733.24C1432.53 743.907 1403.73 749.24 1370.88 749.24ZM1753.61 746.68C1720.33 746.68 1691.53 739.427 1667.21 724.92C1643.32 710.413 1624.76 689.72 1611.53 662.84C1598.73 635.96 1592.33 604.6 1592.33 568.76C1592.33 532.92 1598.73 501.773 1611.53 475.32C1624.76 448.44 1643.32 427.747 1667.21 413.24C1691.1 398.307 1719.26 390.84 1751.69 390.84C1782.41 390.84 1809.5 398.093 1832.97 412.6C1856.44 426.68 1874.57 447.16 1887.37 474.04C1900.6 500.92 1907.21 533.347 1907.21 571.32V588.6H1662.73C1664.44 621.88 1673.18 646.84 1688.97 663.48C1705.18 680.12 1726.94 688.44 1754.25 688.44C1774.3 688.44 1790.94 683.747 1804.17 674.36C1817.4 664.973 1826.57 652.387 1831.69 636.6L1902.09 641.08C1893.13 672.653 1875.42 698.253 1848.97 717.88C1822.94 737.08 1791.16 746.68 1753.61 746.68ZM1662.73 537.4H1835.53C1833.4 507.107 1824.65 484.707 1809.29 470.2C1794.36 455.693 1775.16 448.44 1751.69 448.44C1727.37 448.44 1707.32 456.12 1691.53 471.48C1676.17 486.413 1666.57 508.387 1662.73 537.4ZM1963.15 739V398.52H2025.23L2027.79 489.4L2019.47 484.92C2023.31 462.733 2030.56 444.813 2041.23 431.16C2051.9 417.507 2064.91 407.48 2080.27 401.08C2095.63 394.253 2112.27 390.84 2130.19 390.84C2155.79 390.84 2176.91 396.6 2193.55 408.12C2210.62 419.213 2223.42 434.573 2231.95 454.2C2240.91 473.4 2245.39 495.373 2245.39 520.12V739H2177.55V540.6C2177.55 520.547 2175.42 503.693 2171.15 490.04C2166.88 476.387 2159.84 465.933 2150.03 458.68C2140.22 451.427 2127.42 447.8 2111.63 447.8C2087.74 447.8 2068.32 455.693 2053.39 471.48C2038.46 487.267 2030.99 510.307 2030.99 540.6V739H1963.15ZM2434.66 739C2402.23 739 2378.34 731.533 2362.98 716.6C2347.62 701.667 2339.94 678.413 2339.94 646.84V318.52H2407.78V641.72C2407.78 657.507 2411.19 668.387 2418.02 674.36C2424.85 680.333 2435.3 683.32 2449.38 683.32H2498.02V739H2434.66ZM2288.1 454.2V398.52H2498.02V454.2H2288.1ZM2550.05 739V398.52H2617.89V739H2550.05ZM2548.77 349.24V281.4H2619.17V349.24H2548.77ZM2706.63 739V398.52H2768.71L2771.27 489.4L2762.95 484.92C2766.79 462.733 2774.04 444.813 2784.71 431.16C2795.37 417.507 2808.39 407.48 2823.75 401.08C2839.11 394.253 2855.75 390.84 2873.67 390.84C2899.27 390.84 2920.39 396.6 2937.03 408.12C2954.09 419.213 2966.89 434.573 2975.43 454.2C2984.39 473.4 2988.87 495.373 2988.87 520.12V739H2921.03V540.6C2921.03 520.547 2918.89 503.693 2914.63 490.04C2910.36 476.387 2903.32 465.933 2893.51 458.68C2883.69 451.427 2870.89 447.8 2855.11 447.8C2831.21 447.8 2811.8 455.693 2796.87 471.48C2781.93 487.267 2774.47 510.307 2774.47 540.6V739H2706.63ZM3204.61 746.68C3171.33 746.68 3142.53 739.427 3118.21 724.92C3094.32 710.413 3075.76 689.72 3062.53 662.84C3049.73 635.96 3043.33 604.6 3043.33 568.76C3043.33 532.92 3049.73 501.773 3062.53 475.32C3075.76 448.44 3094.32 427.747 3118.21 413.24C3142.1 398.307 3170.26 390.84 3202.69 390.84C3233.41 390.84 3260.5 398.093 3283.97 412.6C3307.44 426.68 3325.57 447.16 3338.37 474.04C3351.6 500.92 3358.21 533.347 3358.21 571.32V588.6H3113.73C3115.44 621.88 3124.18 646.84 3139.97 663.48C3156.18 680.12 3177.94 688.44 3205.25 688.44C3225.3 688.44 3241.94 683.747 3255.17 674.36C3268.4 664.973 3277.57 652.387 3282.69 636.6L3353.09 641.08C3344.13 672.653 3326.42 698.253 3299.97 717.88C3273.94 737.08 3242.16 746.68 3204.61 746.68ZM3113.73 537.4H3286.53C3284.4 507.107 3275.65 484.707 3260.29 470.2C3245.36 455.693 3226.16 448.44 3202.69 448.44C3178.37 448.44 3158.32 456.12 3142.53 471.48C3127.17 486.413 3117.57 508.387 3113.73 537.4ZM3491.51 739C3469.33 739 3451.41 733.24 3437.75 721.72C3424.1 710.2 3417.27 691.853 3417.27 666.68V284.6H3485.11V660.28C3485.11 667.96 3487.03 673.72 3490.87 677.56C3495.14 681.4 3501.11 683.32 3508.79 683.32H3535.67V739H3491.51Z" fill="white"/>
</svg>
